<svg xmlns="http://www.w3.org/2000/svg" xmlns:xlink="http://www.w3.org/1999/xlink" version="1.1" width="256" height="256" viewBox="0 0 256 256" xml:space="preserve">

<defs>
</defs>
<g style="stroke: none; stroke-width: 0; stroke-dasharray: none; stroke-linecap: butt; stroke-linejoin: miter; stroke-miterlimit: 10; fill: none; fill-rule: nonzero; opacity: 1;" transform="translate(1.4065934065934016 1.4065934065934016) scale(2.81 2.81)" >
	<path d="M 29.794 73.729 H 15.846 V 59.935 h 13.948 V 73.729 z M 18.846 70.762 h 7.948 v -7.86 h -7.948 V 70.762 z" style="stroke: none; stroke-width: 1; stroke-dasharray: none; stroke-linecap: butt; stroke-linejoin: miter; stroke-miterlimit: 10; fill: rgb(0,0,0); fill-rule: nonzero; opacity: 1;" transform=" matrix(1 0 0 1 0 0) " stroke-linecap="round" />
	<path d="M 74.794 73.729 H 60.847 V 59.935 h 13.947 V 73.729 z M 63.847 70.762 h 7.947 v -7.86 h -7.947 V 70.762 z" style="stroke: none; stroke-width: 1; stroke-dasharray: none; stroke-linecap: butt; stroke-linejoin: miter; stroke-miterlimit: 10; fill: rgb(0,0,0); fill-rule: nonzero; opacity: 1;" transform=" matrix(1 0 0 1 0 0) " stroke-linecap="round" />
	<path d="M 29.485 20.322 H 15.538 V 6.528 h 13.948 V 20.322 z M 18.538 17.355 h 7.948 v -7.86 h -7.948 V 17.355 z" style="stroke: none; stroke-width: 1; stroke-dasharray: none; stroke-linecap: butt; stroke-linejoin: miter; stroke-miterlimit: 10; fill: rgb(0,0,0); fill-rule: nonzero; opacity: 1;" transform=" matrix(1 0 0 1 0 0) " stroke-linecap="round" />
	<path d="M 47.485 20.322 H 33.538 V 6.528 h 13.948 V 20.322 z M 36.538 17.355 h 7.948 v -7.86 h -7.948 V 17.355 z" style="stroke: none; stroke-width: 1; stroke-dasharray: none; stroke-linecap: butt; stroke-linejoin: miter; stroke-miterlimit: 10; fill: rgb(0,0,0); fill-rule: nonzero; opacity: 1;" transform=" matrix(1 0 0 1 0 0) " stroke-linecap="round" />
	<path d="M 29.485 38.125 H 15.538 V 24.33 h 13.948 V 38.125 z M 18.538 35.158 h 7.948 v -7.86 h -7.948 V 35.158 z" style="stroke: none; stroke-width: 1; stroke-dasharray: none; stroke-linecap: butt; stroke-linejoin: miter; stroke-miterlimit: 10; fill: rgb(0,0,0); fill-rule: nonzero; opacity: 1;" transform=" matrix(1 0 0 1 0 0) " stroke-linecap="round" />
	<path d="M 47.485 38.125 H 33.538 V 24.33 h 13.948 V 38.125 z M 36.538 35.158 h 7.948 v -7.86 h -7.948 V 35.158 z" style="stroke: none; stroke-width: 1; stroke-dasharray: none; stroke-linecap: butt; stroke-linejoin: miter; stroke-miterlimit: 10; fill: rgb(0,0,0); fill-rule: nonzero; opacity: 1;" transform=" matrix(1 0 0 1 0 0) " stroke-linecap="round" />
	<path d="M 29.485 55.927 H 15.538 V 42.132 h 13.948 V 55.927 z M 18.538 52.96 h 7.948 v -7.86 h -7.948 V 52.96 z" style="stroke: none; stroke-width: 1; stroke-dasharray: none; stroke-linecap: butt; stroke-linejoin: miter; stroke-miterlimit: 10; fill: rgb(0,0,0); fill-rule: nonzero; opacity: 1;" transform=" matrix(1 0 0 1 0 0) " stroke-linecap="round" />
	<path d="M 47.485 55.927 H 33.538 V 42.132 h 13.948 V 55.927 z M 36.538 52.96 h 7.948 v -7.86 h -7.948 V 52.96 z" style="stroke: none; stroke-width: 1; stroke-dasharray: none; stroke-linecap: butt; stroke-linejoin: miter; stroke-miterlimit: 10; fill: rgb(0,0,0); fill-rule: nonzero; opacity: 1;" transform=" matrix(1 0 0 1 0 0) " stroke-linecap="round" />
	<path d="M 74.485 38.125 H 60.538 V 24.33 h 13.947 V 38.125 z M 63.538 35.158 h 7.947 v -7.86 h -7.947 V 35.158 z" style="stroke: none; stroke-width: 1; stroke-dasharray: none; stroke-linecap: butt; stroke-linejoin: miter; stroke-miterlimit: 10; fill: rgb(0,0,0); fill-rule: nonzero; opacity: 1;" transform=" matrix(1 0 0 1 0 0) " stroke-linecap="round" />
	<path d="M 74.485 55.927 H 60.538 V 42.132 h 13.947 V 55.927 z M 63.538 52.96 h 7.947 v -7.86 h -7.947 V 52.96 z" style="stroke: none; stroke-width: 1; stroke-dasharray: none; stroke-linecap: butt; stroke-linejoin: miter; stroke-miterlimit: 10; fill: rgb(0,0,0); fill-rule: nonzero; opacity: 1;" transform=" matrix(1 0 0 1 0 0) " stroke-linecap="round" />
	<path d="M 82.467 87.033 V 17.355 H 55.533 V 0 h -48 v 87.033 H 2 V 90 h 31.846 h 13.948 H 88 v -2.967 H 82.467 z M 79.467 20.322 v 66.711 H 55.533 V 20.322 H 79.467 z M 36.846 87.033 V 62.902 h 7.948 v 24.131 H 36.846 z M 33.846 59.935 v 27.098 H 10.533 V 2.967 h 42 v 84.066 h -4.739 V 59.935 H 33.846 z" style="stroke: none; stroke-width: 1; stroke-dasharray: none; stroke-linecap: butt; stroke-linejoin: miter; stroke-miterlimit: 10; fill: rgb(0,0,0); fill-rule: nonzero; opacity: 1;" transform=" matrix(1 0 0 1 0 0) " stroke-linecap="round" />
</g>
</svg>