<?xml version="1.0" encoding="utf-8"?>
<!-- Svg Vector Icons : http://www.onlinewebfonts.com/icon -->
<!DOCTYPE svg PUBLIC "-//W3C//DTD SVG 1.1//EN" "http://www.w3.org/Graphics/SVG/1.1/DTD/svg11.dtd">
<svg version="1.1" xmlns="http://www.w3.org/2000/svg" xmlns:xlink="http://www.w3.org/1999/xlink" x="0px" y="0px" viewBox="0 0 1000 1000" enable-background="new 0 0 1000 1000" xml:space="preserve">
<metadata> Svg Vector Icons : http://www.onlinewebfonts.com/icon </metadata>
<g><path d="M499.9,990C261,990,67.4,893.2,67.4,773.8c0-77,80.7-144.4,201.8-182.7v57.9C181.6,678,125.2,723,125.2,773.8c0,87.6,167.8,158.6,374.8,158.6s374.8-71,374.8-158.6c0-50.7-56.6-95.8-144.1-124.9v-57.9c121.1,38.3,201.8,105.8,201.8,182.7C932.3,893.1,738.7,990,499.9,990L499.9,990z M515,802.4L499.9,817l-15-14.4C473.8,792,211.5,541.9,211.5,298c0-159.6,129.3-288,288.3-288c159.1,0,288.3,129.8,288.3,289.5C788.2,536.9,526.1,791.6,515,802.4L515,802.4z M499.9,67c-127,0-230.6,108.5-230.6,231c0,174.5,178.3,381.3,230.6,432.4C552,678.3,730.5,467.8,730.5,298C730.5,175.5,626.8,67,499.9,67L499.9,67z M355.2,326.8c0-79.4,64.8-144,144.5-144c79.8,0,144.7,64.6,144.7,144c0,79.4-64.8,144.1-144.7,144.1C420,470.9,355.2,406.2,355.2,326.8L355.2,326.8z M586.4,326.8c0-47.5-38.8-86.1-86.5-86.1c-47.7,0-86.5,38.6-86.5,86.1c0,47.5,38.8,86.1,86.5,86.1C547.6,412.9,586.4,374.3,586.4,326.8L586.4,326.8z"/></g>
</svg>